<mxfile host="app.diagrams.net" modified="2023-07-01T02:04:08.317Z" agent="Mozilla/5.0 (Windows NT 10.0; Win64; x64) AppleWebKit/537.36 (KHTML, like Gecko) Chrome/113.0.0.0 Safari/537.36" version="21.5.2" etag="NyNHMLb1IWemcgEkQd-G" type="github">
  <diagram name="Page-1" id="5_b7d9A0a-5dteNg3V1-">
    <mxGraphModel>
      <root>
        <mxCell id="0" />
        <mxCell id="1" parent="0" />
      </root>
    </mxGraphModel>
  </diagram>
</mxfile>
